# xmcd CD database file
#
# Track frame offsets:
#	150
#	16702
#	29950
#	58332
#
# Disc length: 1042 seconds
#
# Revision: 0
# Processed by: cddbd v1.5.1PL0 Copyright (c) Steve Scherf et al.
# Submitted via: CDex 1.51
#
DISCID=32041004
DTITLE=Canned Heat - The Heat Bros. '84
DYEAR=1984
DGENRE=Blues
TTITLE0=C.C. Shooter 
TTITLE1=Harley-Davidson Blues
TTITLE2=Hard Rider
TTITLE3=You Lied
EXTD=YEAR: 1984
EXTT0=
EXTT1=
EXTT2=
EXTT3=
PLAYORDER=
